<?xml version="1.0" encoding="UTF-8"?>
<!DOCTYPE svg PUBLIC "-//W3C//DTD SVG 1.1//EN" "http://www.w3.org/Graphics/SVG/1.1/DTD/svg11.dtd">
<!-- Creator: CorelDRAW 2019 (64-Bit) -->
<svg xmlns="http://www.w3.org/2000/svg" xml:space="preserve" width="100mm" height="100mm" version="1.1" style="shape-rendering:geometricPrecision; text-rendering:geometricPrecision; image-rendering:optimizeQuality; fill-rule:evenodd; clip-rule:evenodd"
viewBox="0 0 10000 10000"
 xmlns:xlink="http://www.w3.org/1999/xlink"
 xmlns:xodm="http://www.corel.com/coreldraw/odm/2003">
 <defs>
  <style type="text/css">
   <![CDATA[
    .fil0 {fill:white}
   ]]>
  </style>
 </defs>
 <g id="Layer_x0020_1">
  <metadata id="CorelCorpID_0Corel-Layer"/>
  <path class="fil0" d="M4958.14 2662.05c1204.07,0 2180.16,976.09 2180.16,2180.16 0,1204.07 -976.09,2180.16 -2180.16,2180.16 -1204.07,0 -2180.16,-976.09 -2180.16,-2180.16 0,-1204.07 976.09,-2180.16 2180.16,-2180.16zm-5.82 84.74c1160.49,0 2101.24,940.75 2101.24,2101.24 0,1160.49 -940.75,2101.25 -2101.24,2101.25 -1160.49,0 -2101.25,-940.76 -2101.25,-2101.25 0,-1160.49 940.76,-2101.24 2101.25,-2101.24z"/>
  <path class="fil0" d="M4504.83 3914.94l1247.01 950.47 -1247.01 950.46 0 -1900.93zm72.89 134.14l1071.02 816.33 -1071.02 816.32 0 -1632.65z"/>
 </g>
</svg>
